<svg xmlns="http://www.w3.org/2000/svg" viewBox="0 0 220 32" fill="#0a0a0a">
  <!-- T -->
  <rect x="0" y="0" width="18" height="4"/>
  <rect x="7" y="0" width="4" height="24"/>
  <!-- H -->
  <rect x="22" y="0" width="4" height="24"/>
  <rect x="22" y="10" width="16" height="4"/>
  <rect x="34" y="0" width="4" height="24"/>
  <!-- E -->
  <rect x="42" y="0" width="16" height="4"/>
  <rect x="42" y="0" width="4" height="24"/>
  <rect x="42" y="10" width="13" height="4"/>
  <rect x="42" y="20" width="16" height="4"/>
  <!-- V -->
  <polygon points="66,0 70,0 75,18 80,0 84,0 77,24 73,24"/>
  <!-- I -->
  <rect x="88" y="0" width="4" height="24"/>
  <!-- B -->
  <rect x="96" y="0" width="4" height="24"/>
  <rect x="96" y="0" width="14" height="4"/>
  <rect x="110" y="2" width="4" height="8"/>
  <rect x="96" y="10" width="14" height="4"/>
  <rect x="112" y="12" width="4" height="8"/>
  <rect x="96" y="20" width="16" height="4"/>
  <!-- E -->
  <rect x="120" y="0" width="16" height="4"/>
  <rect x="120" y="0" width="4" height="24"/>
  <rect x="120" y="10" width="13" height="4"/>
  <rect x="120" y="20" width="16" height="4"/>
  <!-- C -->
  <rect x="148" y="0" width="16" height="4"/>
  <rect x="148" y="0" width="4" height="24"/>
  <rect x="148" y="20" width="16" height="4"/>
  <!-- O -->
  <rect x="168" y="0" width="16" height="4"/>
  <rect x="168" y="0" width="4" height="24"/>
  <rect x="180" y="0" width="4" height="24"/>
  <rect x="168" y="20" width="16" height="4"/>
  <!-- dot -->
  <rect x="188" y="18" width="5" height="6"/>
  <!-- Tagline bar -->
  <rect x="0" y="27" width="193" height="0.5" opacity="0.2"/>
  <text x="0" y="32" font-family="monospace" font-size="3.2" font-weight="500" letter-spacing="0.4" fill="#0a0a0a" opacity="0.45">CONTENT COMMAND CENTER</text>
</svg>