<?xml version="1.0" standalone="no"?>
<!DOCTYPE svg PUBLIC "-//W3C//DTD SVG 20010904//EN" "http://www.w3.org/TR/2001/REC-SVG-20010904/DTD/svg10.dtd">
<svg version="1.0" xmlns="http://www.w3.org/2000/svg" width="2418.000000pt" height="2354.000000pt" viewBox="0 0 2418 2354" preserveAspectRatio="xMidYMid meet">
<g transform="translate(0,2354) scale(0.1,-0.1)">
  
  <path fill="black" d="M3845 23435 c-567 -53 -1040 -187 -1521 -434 -556 -286 -1063 -721
  -1449 -1246 -103 -139 -244 -375 -330 -550 -149 -302 -224 -499 -300 -783 -83
  -315 -112 -524 -126 -937 -15 -466 -7 -15520 9 -15645 64 -488 130 -762 272
  -1110 66 -164 220 -472 307 -615 453 -746 1143 -1334 1963 -1673 356 -147 740
  -239 1190 -283 173 -17 16332 -17 16545 0 381 31 719 103 1060 227 537 196
  1061 527 1470 931 331 326 587 679 790 1088 234 473 338 816 412 1365 16 116
  17 656 21 7900 2 5393 0 7838 -8 7980 -19 383 -90 731 -224 1098 -221 608
  -511 1059 -980 1527 -370 369 -756 632 -1226 835 -455 198 -923 305 -1430 330
  -345 16 -16263 11 -16445 -5z"/>

  <path fill="white" d="M20595 18291 c402 -132 653 -497 605 -879 -20
  -168 -77 -297 -188 -427 -107 -125 -241 -211 -409 -261 -85 -26 -101 -27 -443
  -35 -610 -13 -1000 -46 -1510 -125 -626 -97 -1347 -308 -1921 -562 -1398 -619
  -2548 -1628 -3367 -2953 -163 -264 -461 -829 -561 -1064 -16 -38 -34 -71 -39
  -73 -6 -2 -35 72 -66 165 -143 434 -403 1136 -616 1661 -34 84 -59 160 -56
  168 26 67 372 596 516 788 430 574 1010 1180 1545 1612 1019 824 2170 1394
  3470 1718 603 150 1369 257 2045 286 102 4 352 7 555 6 357 -2 373 -3 440 -25z
  m-16425 -10 c930 -149 1854 -441 2650 -840 491 -246 1000 -559 1345 -825 397
  -307 642 -524 975 -862 903 -919 1597 -2022 2161 -3431 257 -644 460 -1265
  714 -2188 53 -192 107 -386 120 -430 13 -44 51 -181 85 -305 75 -276 149 -541
  200 -720 21 -74 52 -184 69 -245 16 -60 57 -207 90 -325 33 -118 65 -234 71
  -257 10 -39 30 -60 30 -32 0 12 92 301 231 728 44 134 105 323 135 420 298
  952 539 1646 719 2076 199 474 543 1111 793 1470 415 595 890 1089 1447 1508
  693 520 1501 896 2370 1102 380 90 640 132 1045 169 369 34 898 47 1057 25
  379 -51 698 -381 729 -754 8 -94 -11 -241 -42 -323 -53 -141 -175 -299 -300
  -388 -72 -51 -207 -116 -278 -133 -75 -18 -279 -30 -516 -31 -681 -1 -1456
  -157 -2072 -416 -178 -75 -467 -221 -618 -312 -369 -222 -656 -446 -965 -756
  -554 -555 -943 -1170 -1281 -2026 -92 -233 -174 -469 -314 -906 -67 -208 -171
  -527 -230 -709 -59 -181 -176 -541 -260 -800 -318 -983 -561 -1698 -615 -1810
  -198 -411 -595 -655 -1067 -655 -64 0 -152 5 -195 10 -435 59 -791 361 -931
  790 -57 174 -210 686 -408 1360 -206 702 -254 869 -394 1370 -165 590 -218
  777 -336 1193 -69 240 -156 535 -194 654 -39 119 -70 221 -70 225 0 17 -203
  576 -274 756 -353 892 -789 1678 -1280 2307 -268 343 -700 794 -998 1041 -673
  560 -1396 975 -2223 1274 -476 173 -930 290 -1510 390 -144 25 -196 41 -296
  91 -230 115 -398 323 -455 566 -34 144 -15 345 45 477 113 249 314 421 571
  487 94 24 282 20 470 -10z m-129 -3031 c395 -71 920 -246 1379 -460 1209 -563
  2180 -1489 2889 -2754 230 -410 472 -964 640 -1464 111 -329 316 -1030 441
  -1507 23 -88 54 -205 70 -260 16 -55 81 -291 145 -525 64 -234 141 -508 170
  -610 30 -102 77 -268 105 -370 60 -218 211 -728 272 -920 l42 -135 1 -160 c0
  -154 -1 -163 -31 -247 -61 -170 -178 -319 -325 -414 -144 -93 -284 -130 -463
  -121 -234 11 -439 119 -596 313 -88 110 -129 204 -206 469 -36 127 -92 320
  -124 430 -63 214 -391 1379 -510 1810 -346 1257 -441 1581 -554 1887 -339 918
  -766 1617 -1325 2166 -641 630 -1346 1017 -2269 1246 -211 53 -304 97 -422
  202 -104 93 -167 172 -215 269 -58 120 -73 168 -86 280 -36 324 151 659 452
  810 168 85 308 102 520 65z m16529 -2925 c92 -24 254 -106 330 -168 114 -93
  220 -243 265 -375 93 -276 33 -563 -166 -793 -96 -111 -223 -191 -389 -244
  -80 -25 -102 -28 -350 -36 -337 -10 -472 -26 -739 -85 -588 -131 -1121 -504
  -1474 -1032 -84 -125 -207 -361 -260 -497 -46 -118 -237 -698 -377 -1145 -62
  -195 -152 -479 -200 -630 -49 -151 -112 -349 -140 -440 -199 -634 -340 -1051
  -387 -1142 -32 -63 -68 -112 -128 -175 -100 -106 -200 -170 -347 -221 -98 -34
  -109 -36 -238 -36 -110 0 -149 4 -213 22 -267 77 -467 282 -553 568 -32 109
  -37 251 -10 354 9 36 81 265 160 510 80 245 186 576 236 735 50 160 147 466
  215 680 68 215 156 491 194 615 184 591 310 936 440 1205 238 490 516 885 862
  1220 483 468 1029 784 1670 965 336 95 631 139 1099 164 156 8 435 -2 500 -19z
  m-16563 -170 c134 -28 272 -86 445 -186 554 -321 1040 -816 1412 -1439 123
  -205 181 -315 261 -495 151 -336 231 -570 364 -1060 80 -293 123 -448 159
  -575 16 -58 67 -240 112 -405 170 -620 354 -1265 450 -1575 26 -86 53 -189 60
  -230 44 -263 -90 -575 -315 -735 -174 -124 -378 -180 -558 -154 -246 35 -458
  171 -597 381 -62 94 -83 152 -169 458 -23 80 -127 449 -232 820 -278 985 -345
  1226 -369 1315 -12 44 -34 123 -50 175 -16 52 -51 177 -80 278 -99 354 -171
  546 -296 793 -237 469 -565 814 -1004 1059 -233 130 -364 260 -455 451 -79
  167 -100 368 -56 532 75 281 305 517 575 587 88 23 248 26 343 5z"/>
</g>
</svg>