<?xml version="1.0" encoding="UTF-8"?>
<svg id="Calque_1" data-name="Calque 1" xmlns="http://www.w3.org/2000/svg" version="1.1" viewBox="0 0 595.3 141.7">
  <defs>
    <style>
      .cls-1 {
        fill: #fff;
      }

      .cls-1, .cls-2, .cls-3 {
        stroke: #fff;
        stroke-width: .3px;
      }

      .cls-1, .cls-2, .cls-3, .cls-4 {
        stroke-miterlimit: 10;
      }

      .cls-2 {
        fill: #232f5e;
      }

      .cls-5 {
        fill: #343333;
        stroke-width: 0px;
      }

      .cls-3 {
        fill: #e52322;
      }

      .cls-4 {
        fill: #373636;
        stroke: #373636;
        stroke-width: .3px;
      }
    </style>
  </defs>
  <path class="cls-4" d="M408.9,93.9h0s0,0,0,0c0,0,0,0,0,0"/>
  <g>
    <path class="cls-5" d="M476.2,35.3c2.4-4.1,2.8-8.5.9-12.6-2.2-4.8-7.3-8.4-13.7-9.5-5.6-1-12-1-19.4.1-11.8,1.8-21.7,5.1-30.3,10.4-4.2,2.6-7.1,5.4-9,8.6-.9,1.5-1,3.2-.4,4.9.7,2.1,2.5,4.1,4.4,4.9,1.7.7,3.1.3,3.9-1.2,1.4-2.4,3.6-4.6,6.7-6.6,10-6.5,21.9-10.3,35.2-11.3,4.6-.3,8,0,10.9,1.2,1.6.7,2.6,1.4,2.9,2.3.3.8,0,1.8-.7,3-1.1,1.7-2.2,3.2-3.5,4.4-6.8,6.4-15.5,11.4-25.8,15-.6.2-1.2.4-1.8.5.1-.2.3-.6.5-1,1.6-3,5.8-11,10.1-14.6l1-.9h-.1c0-.2-2.5-2-7.4-3-5.1-1-6.4-.8-9.4,3.2-.3.4-28.2,43.9-33.4,52.8-2.1,3.3-4.1,6.3-5.8,9v.2c-.1,0,13.5,0,13.5,0h0c8.9-12.5,20.5-26,28.5-35,1,0,2.2,0,3.3-.3,18.2-3.4,31.3-11.7,38.9-24.4Z"/>
    <path class="cls-5" d="M586.8,84.8c-.6-2.8-1.2-5.6-1.3-8.3-.4-10,1.3-18.7,1.3-18.8h0c0,0-5.3-9.7-5.3-9.7h-.1c-.3.4-26.9,25.1-40.9,32.8,2-1.5,3.9-3,5.6-4.6,7.7-7.1,8.6-10.7,9.9-16l.2-.8c.9-3.6.4-7-1.4-9.1-1.5-1.8-3.8-2.7-6.5-2.6-3.4.2-10.5,4.4-16.2,9.5-4.3,3.8-11.3,11.4-11,19.2,0,1.9.3,3.7.8,5.4-2.5.8-5,1.3-7.5,1.4-1.6,0-2.8-.3-3.6-1.1-1.1-1.1-1.5-3-1.3-5.6,1.2-1.7,2.4-3.4,3.6-5.3,4.3-6.4,9.2-13.6,15.1-21.1,3.7-4.6,6.7-9.1,9-13.3,14.2-2.6,27.4-4.4,34.1-5.2h.2s0-.2,0-.2c-.7-1.5-1-3.1-1-4.7s.3-2.8.8-4.2v-.2c0,0-.2,0-.2,0-12.4,1.5-24.1,3.4-34.8,5.4v-.4s0,0,0,0c-.3-.6-3.3-5.6-4.8-4.9-.9.4-1.5,1.3-2.4,2.9-.6,1-1.3,2.3-2.5,3.9-23.5,5.1-31.6,8.7-35.1,10.2-.3.1-.6.3-.8.4-.7.3-.9,1-.6,1.8,1,2.6,6.3,6.1,11.3,4.4,3.4-1.2,11-3.7,17.4-5.3-8,12.2-13.4,22-16.2,29.1-7.9,9.2-13.4,14.1-16,14.2-.4,0-.8,0-1-.3-.5-.4,1.6-5.1,3.4-9.2,2.8-6.5,6.1-13.8,5.3-16.1-1.1-3.4-2.3-5.4-3.6-6.2-.4-2.5-2.4-6.5-10.7-5.4-11.6,1.6-30.6,11.5-36.1,26.1-1.5,3.9-1.6,10.1-1,12.8,1.5,5.5,6.2,8.1,13.9,7.6,6.5-.4,9.6-2,18.3-9.4.2-.2.4-.3.6-.2.5.1,1,1.1,1.7,2.3,1.6,3.1,4.3,8.4,12,8.4s7.8-2.2,12.3-7.3c2.9,5.7,9.2,6.9,11.2,6.9s7.2-1.6,13.5-4.6c3.3,3.1,7.4,3.5,9.5,3.5,6.8,0,31.9-14.9,38.5-27.1,0,2.3.5,11,.9,16.5.2,2.5-.1,4.2-.9,5.1-.4.5-1,.7-1.7.7-1.1,0-5.3-.9-8.9-3.9-.4-.3-.8-.3-1.1,0-.3.2-.4.6-.3.9,1.7,4.5,6.7,14.9,17.3,14.9.1,0,.3,0,.4,0,3.2,0,5.4-.9,6.7-2.5,2.2-2.8,1.2-7.6.2-12.7ZM531.3,77.2c0-8.8,9.3-18.6,14.1-19.7.1,0,.3,0,.4,0,.3,0,.5.1.6.4.9,2.1-4.8,12.4-15.1,19.4ZM482.9,57.9c-.8,1.3-1.6,2.7-2.5,4.2-2,3.4-4.1,7-6.2,9.5-5.2,6-12.6,12.4-17.6,12.4h0c-1,0-1.8-.3-2.4-.9-1.6-1.9-.8-4.7.2-6.7,4.1-8.4,17.4-18.5,26.9-18.5s.5,0,.7,0c.3,0,.6,0,.9,0Z"/>
    <path class="cls-5" d="M375.9,63.8c-.3.2-1.2,1.2-2.6,2.6-5.5,5.9-18.3,19.7-26.1,17.7,8-7,16.6-18,17.7-21.8,2.1-7,.8-11.9-3.9-14.6-1.3-.8-5.3-2-14.2,2.6-8.1,4.3-12,12.3-13.9,18.3-2.1,6.8-2.2,13-2,14.9-.9,1.3-2.3,1.7-3.9,1-2-.9-3.7-3.4-3.1-6.6,2.2-10.5,19.9-37.8,26.5-48.1.9-1.4,1.6-2.5,2-3.2,1.9-3.1,0-6.7-2.7-8.5-1.9-1.3-3.7-1.3-4.6,0-1.2,1.7-2.3,3.6-4,6.2-3.3,5.3-8.3,13.2-17.8,27.1-1-1.6-3.7-2.3-8.8-2.2-8,.2-19.4,7.4-25.8,14.3-4.1,4.4-8.9,11.5-8.4,19.6.2,3.3,2.3,6.2,6.1,8.3,3,1.7,6.5,2.6,8.8,2.8.5,0,1.1,0,1.6,0,7.7,0,15.3-6.4,18.4-9.3,0,2.8,1.4,4.8,2.7,6,2.3,2.1,5.7,3.2,8.6,2.8,3.7-.5,6.7-1.4,9.5-2.8,2.2,1.2,4.9,2,8.1,2.5.9.1,1.7.2,2.6.2,14.7,0,28.7-17,34.3-24.6.2-.2.3-.4.4-.5.6-.7-.5-2-1-2.6-1.2-1.4-3.6-3.1-4.8-2.4ZM354.1,55.7h0c.3,0,.6.2.7.7,1.7,6-7.8,15.3-14,20.5,1.4-4.6,3.9-9.7,6.8-14.2,2.7-4.2,5.3-7,6.5-7ZM314.4,70.8c-4.5,7.5-14.6,14.4-20.1,11.6-.6-.3-1-.9-1.2-1.8-.3-1.2-.5-4.5,3.8-10.4,2.3-3.2,9.5-10.4,15.5-10.6.2,0,.3,0,.5,0,2.4,0,3.8.5,4.4,1.5.7,1.1.8,3.1-2.9,9.7Z"/>
    <path class="cls-5" d="M257,47.2c-5.1-3.2-12.5-2.6-18.4,1.6-1-1.3-1.8-2.6-2.2-3.8-.3-.9-.9-1.2-1.3-1.3-.7-.1-1.5.2-1.6.4-17.7,18.9-39.7,34.7-48.3,37-.2,0-.6-.2-1-.6-.2-.2-.6-.9-.2-1.5,2.1-3.3,4-6.5,5.9-9.6,2.8-4.6,5.5-9,8.6-13.6.1-.2.2-.4.1-.7,0-.2-1.6-5.7-4.2-8.3-.2-.2-.4-.3-.7-.3-.2,0-.4.1-.6.3-2.8,3.4-5,6-7.1,8.6-2.1,2.5-4,4.9-6.5,7.8-7.5,8.8-14.3,15.7-23.6,20.9-.7.4-1.5,0-2-.3-.3-.3-.4-.5-.4-.6,4-10.1,9.5-18.5,14.3-25.4,1.1-1.6.3-3.2-.6-5-.5-1-1.1-2.1-1.2-3.2,0-.6-.5-1.2-1.2-1.5-.6-.3-1.2-.2-1.7,0-1.6,1-3.3,2-4.9,2.9-2.9,1.7-5.6,3.2-8.2,5.1-.2.1-.4.3-.7.4-.9-6-5.4-10-8.1-11.8-3.9-2.7-8.5-4-11.2-3.4-8,2-13.8,5-17.3,8.8,0,.1-.2.2-.3.3-.3.3-.7.7-1.1,1.2-2.2-.5-4-.9-4-.9h0s0,0,0,0c-3.2,1.9-6.7,5.4-10.5,10.8-5.4,7.5-30.5,21.9-41.5,26.5-.3.1-.7.3-1.1.5-4.6,2-16.7,7.3-24.6,5-.9-.3-1.4-1-1.6-2.3-1-8.3,14.4-34.4,38.2-48.2.2-.1.5-.3.6-.1.3.3,0,1.5-.6,2.5-.1.1-.3.3-.4.5-.9,1-2.2,2.5-4.7,2.2-.2,0-.3,0-.4.2,0,.1,0,.3,0,.4h0c.8,1.4,3.2,5.5,6.6,6.4,1.5.4,3,0,4.5-.9,0,0,.2-.2.4-.3,6-3.4,14.4-11.2,16.9-17,1.6-3.7-.4-8-6-13.2-1.7-1.5-5.8-.1-7.9.5-19.7,6.5-42.1,25.6-55.6,47.4-2.3,4-6.8,15.8-4.6,21.1,1.8,4.3,5.8,7.8,10.6,9.3,19.5,5.9,36.2-3.5,52.5-12.6,4.8-2.7,9.7-5.4,14.6-7.7,1.1,1,2.2,2.2,3.3,3.3,2.7,2.8,5.5,5.8,8.9,7.3,3.9,1.8,8.9,1.2,12.4.2.2,0,18.9-6.3,28.3-22.4.8-.3,1.4-.6,1.8-.8-1.4,2.1-6.6,10.6-3.8,15,2.5,3.9,5.7,6.8,8.9,8.2,6,2.5,10.3-.2,14.9-3.2,3-1.9,6-3.9,9.7-4.5.5,0,.8.6,1.1,1.2.2.4.4.7.6.9,3.5,2.9,7.6,3.9,12.6,2.9,4.6-.9,9.1-3.2,12.5-5.2,1.7-1,4-2.5,6.7-4.5-.1.3-.2.6-.3.7-4.7,8-9.4,15.7-13.7,22.8-5.7,9.1-11.8,18.5-15.9,24.9l-.2.2h13.7c8.9-12.5,20.5-25.9,28.4-34.9,5.3,1.1,11.9-.8,18.3-5.2,4.9-3.4,9.5-7.8,13.1-12.6,4-5.4,6.7-11.1,7.6-16.4.9-5.3-.8-9.8-4.9-12.4ZM247.6,62.1c-2.7,7-6.7,12.4-13.4,17.8-1.2,1-7.2,5.8-9.6,4.2-1.2-.8-1.5-1.7-1-2.9,4.6-9.9,12.9-19.4,20.8-23.6.3-.2.6-.3.8-.5.8-.3,1.6-.6,2.2-.6s.6,0,.9.2c1,.6-.2,3.7-.8,5.3ZM119,61.6c-.1-1,1.8-2.8,5.1-4.8,4.3-2.6,10.2-5.2,12.6-5.2s.6,0,.8.2c.3.2.4.4.5.8.3,1.5-1.1,4.6-3.9,8.6-6.8,1.5-12,1.9-14.2,1.2-.5-.2-.8-.4-.8-.8ZM124.5,72c-7.9,6.7-17.4,12.7-19.9,9.9-1.4-1.5,1.3-7.2,7.6-16.3,1.2,1.1,2.8,2.2,4.6,3.3,2.4,1.4,5,2.4,7.8,3.1Z"/>
  </g>
  <g>
    <path class="cls-5" d="M581.7,19c-3.9,0-7,3.1-7,7s3.1,7,7,7,7-3.1,7-7-3.1-7-7-7M581.7,32.1c-3.4,0-6.1-2.7-6.1-6.1s2.7-6.1,6.1-6.1,6.1,2.7,6.1,6.1-2.7,6.1-6.1,6.1"/>
    <path class="cls-5" d="M585,29.1v-1.5c-.1-1.1-.6-1.3-1-1.5.5-.3,1.1-.7,1.1-1.9,0-1.7-1.3-2.2-2.7-2.2h-3.7v8.1h1.1v-3.5h2.7c1.3,0,1.4.8,1.4,1.4s0,1.5.2,2h1.3v-.2c-.3-.2-.4-.4-.4-.8M582.3,25.7h-2.5v-2.8h2.7c.5,0,1.4.1,1.4,1.4s-.8,1.4-1.6,1.4"/>
  </g>
  <g>
    <rect class="cls-5" x="317.3" y="116.4" width="1.8" height="13.1"/>
    <path class="cls-5" d="M334.6,116.2c-3.3,0-5.7,2.9-5.7,6.7s2.5,6.7,5.7,6.7,5.7-3,5.7-6.8-2.5-6.6-5.7-6.6ZM338.5,122.9c0,2.7-1.7,4.8-3.9,4.8s-3.8-2.1-3.8-4.8,1.7-4.8,3.9-4.8,3.8,2.1,3.8,4.7Z"/>
    <polygon class="cls-5" points="214.1 118.2 217.8 118.2 217.8 129.5 219.6 129.5 219.6 118.2 223.2 118.2 223.2 116.4 214.1 116.4 214.1 118.2"/>
    <path class="cls-5" d="M253.3,116.3l-4.9,13.2h1.9l1.6-4.2h4.1l1.6,4.2h1.9l-4.9-13.2h-1.1ZM255.2,123.5h-2.8l1.4-3.7,1.4,3.7Z"/>
    <polygon class="cls-5" points="298.9 118.2 302.6 118.2 302.6 129.5 304.4 129.5 304.4 118.2 308.1 118.2 308.1 116.4 298.9 116.4 298.9 118.2"/>
    <path class="cls-5" d="M275.6,117.3c-1.1-.8-1.7-.9-3.8-.9h-3.5v13.1h3.8c1.9,0,2.5-.2,3.5-.9,1.6-1.1,2.5-3.2,2.5-5.6s-.9-4.5-2.5-5.7ZM276.3,123c0,1.7-.6,3.1-1.7,4-.8.6-1.3.7-2.7.7h-1.8v-9.4h1.8c1.5,0,1.9.1,2.7.7h0c1.1.8,1.7,2.3,1.7,4Z"/>
    <path class="cls-5" d="M237.7,123.1c1-.7,1.5-1.7,1.5-3.1s-.7-2.7-1.8-3.2c-.7-.3-1.2-.4-2.6-.4h-2.4v13.1h1.8v-5.8h.6c1,0,1.1,0,1.3.3.2.2.7.9,1.1,1.6l2,3.9h2.1l-2.7-4.9c-.3-.7-.6-1.1-.9-1.5ZM237.4,120.1c0,.6-.3,1.3-.6,1.5-.4.2-.8.3-2,.3h-.6v-3.6h.7c.9,0,1.4,0,1.7.3.4.3.7.8.7,1.5Z"/>
    <rect class="cls-5" x="288" y="116.4" width="1.8" height="13.1"/>
    <rect class="cls-5" x="540.8" y="116.4" width="1.8" height="13.1"/>
    <polygon class="cls-5" points="522.5 118.2 526.2 118.2 526.2 129.5 528 129.5 528 118.2 531.6 118.2 531.6 116.4 522.5 116.4 522.5 118.2"/>
    <path class="cls-5" d="M508.5,116.3l-4.9,13.2h1.9l1.6-4.2h4.1l1.6,4.2h1.9l-4.9-13.2h-1.1ZM510.5,123.5h-2.8l1.4-3.7,1.4,3.7Z"/>
    <path class="cls-5" d="M558.1,116.2c-3.3,0-5.7,2.9-5.7,6.7s2.5,6.7,5.7,6.7,5.7-3,5.7-6.8-2.5-6.6-5.7-6.6ZM562,122.9c0,2.7-1.7,4.8-3.9,4.8s-3.8-2.1-3.8-4.8,1.7-4.8,3.9-4.8,3.8,2.1,3.8,4.7Z"/>
    <polygon class="cls-5" points="491 125.6 487.9 116.4 486 116.4 490.5 129.6 491.5 129.6 496 116.4 494.1 116.4 491 125.6"/>
    <polygon class="cls-5" points="581.8 116.4 581.8 125.9 575.3 116.6 575.2 116.4 573.7 116.4 573.7 129.5 575.5 129.5 575.5 120 582.1 129.3 582.2 129.5 583.6 129.5 583.6 116.4 581.8 116.4"/>
    <rect class="cls-5" x="414.2" y="116.4" width="1.8" height="13.1"/>
    <path class="cls-5" d="M390.7,124.9c.3-.7.4-1,.6-1.8l.2-.7h-1.8v.4c-.3.8-.5,1.4-.8,1.9l-1.4-1.8c.3-.2.5-.4.8-.7.6-.7,1-1.7,1-2.6,0-1.7-1.1-3-2.6-3s-2.8,1.4-2.8,3.2.2,1.6,1,2.6c-1.4.9-2.2,2.3-2.2,3.8s1.4,3.4,3.2,3.4,1.9-.4,2.6-1.1c.3-.2.4-.4.7-.7l1.2,1.6h2.3l-2.4-3.2c.3-.5.4-.8.6-1.5ZM385.5,119.7c0-.7.5-1.2,1.1-1.2s1,.5,1,1.2-.4,1.3-1.2,1.8c-.5-.7-.8-1.3-.8-1.8ZM387.9,126.4c-.7.9-1.3,1.3-2,1.3s-1.4-.7-1.4-1.7.4-1.5,1.5-2.2l2,2.5Z"/>
    <path class="cls-5" d="M471.8,116.2c-3.3,0-5.7,2.9-5.7,6.7s2.5,6.7,5.7,6.7,5.7-3,5.7-6.8-2.5-6.6-5.7-6.6ZM475.6,122.9c0,2.7-1.7,4.8-3.9,4.8s-3.8-2.1-3.8-4.8,1.7-4.8,3.9-4.8,3.8,2.1,3.8,4.7Z"/>
    <polygon class="cls-5" points="358.3 125.9 351.7 116.6 351.6 116.4 350.2 116.4 350.2 129.5 351.9 129.5 351.9 120 358.5 129.3 358.7 129.5 360 129.5 360 116.4 358.3 116.4 358.3 125.9"/>
    <polygon class="cls-5" points="434.3 125.9 427.8 116.6 427.7 116.4 426.2 116.4 426.2 129.5 428 129.5 428 120 434.6 129.3 434.7 129.5 436.1 129.5 436.1 116.4 434.3 116.4 434.3 125.9"/>
    <polygon class="cls-5" points="454.5 125.9 447.9 116.6 447.8 116.4 446.3 116.4 446.3 129.5 448.1 129.5 448.1 120 454.7 129.3 454.8 129.5 456.2 129.5 456.2 116.4 454.5 116.4 454.5 125.9"/>
  </g>
  <polygon class="cls-2" points="60.3 129 6.8 129 15.7 116.2 69.2 116.2 60.3 129"/>
  <polygon class="cls-1" points="113.7 129 60.2 129 69.1 116.2 122.6 116.2 113.7 129"/>
  <polygon class="cls-3" points="167.1 129 113.6 129 122.5 116.2 176 116.2 167.1 129"/>
</svg>